<?xml version="1.0" encoding="UTF-8" standalone="no"?>
<!-- Created with Inkscape (http://www.inkscape.org/) -->

<svg
   xmlns:dc="http://purl.org/dc/elements/1.1/"
   xmlns:cc="http://creativecommons.org/ns#"
   xmlns:rdf="http://www.w3.org/1999/02/22-rdf-syntax-ns#"
   xmlns:svg="http://www.w3.org/2000/svg"
   xmlns="http://www.w3.org/2000/svg"
   xmlns:sodipodi="http://sodipodi.sourceforge.net/DTD/sodipodi-0.dtd"
   xmlns:inkscape="http://www.inkscape.org/namespaces/inkscape"
   width="158.84328mm"
   height="63.336582mm"
   viewBox="0 0 158.84328 63.336582"
   version="1.1"
   id="svg4988"
   inkscape:version="0.92.3 (2405546, 2018-03-11)"
   sodipodi:docname="logo-nasa-space-apps.svg">
  <defs
     id="defs4982" />
  <sodipodi:namedview
     id="base"
     pagecolor="#ffffff"
     bordercolor="#666666"
     borderopacity="1.0"
     inkscape:pageopacity="0.0"
     inkscape:pageshadow="2"
     inkscape:zoom="0.35"
     inkscape:cx="32.372015"
     inkscape:cy="116.49251"
     inkscape:document-units="mm"
     inkscape:current-layer="layer1"
     showgrid="false"
     fit-margin-top="0"
     fit-margin-left="0"
     fit-margin-right="0"
     fit-margin-bottom="0"
     inkscape:window-width="1366"
     inkscape:window-height="710"
     inkscape:window-x="0"
     inkscape:window-y="28"
     inkscape:window-maximized="1" />
  <metadata
     id="metadata4985">
    <rdf:RDF>
      <cc:Work
         rdf:about="">
        <dc:format>image/svg+xml</dc:format>
        <dc:type
           rdf:resource="http://purl.org/dc/dcmitype/StillImage" />
        <dc:title></dc:title>
      </cc:Work>
    </rdf:RDF>
  </metadata>
  <g
     inkscape:label="Camada 1"
     inkscape:groupmode="layer"
     id="layer1"
     transform="translate(55.434143,-116.31874)">
    <path
       style="fill:#ffffff;stroke-width:0.36649469"
       d="m -36.220423,178.93121 c -8.660313,-2.23454 -15.159218,-8.31657 -18.192519,-17.02535 -0.922061,-2.64728 -1.021201,-3.41234 -1.021201,-7.87968 0,-4.46174 0.09984,-5.23559 1.018206,-7.87962 2.838665,-8.17415 8.487093,-13.81035 16.546278,-16.51039 5.280222,-1.76904 12.454137,-1.58524 17.309446,0.44329 1.162672,0.48571 1.363548,0.48322 1.872426,-0.025 0.313493,-0.3135 1.917353,-3.50025 3.564144,-7.08162 1.881411,-4.09149 3.216655,-6.55566 3.592797,-6.63014 0.960899,-0.19019 0.723532,0.67746 -1.44851,5.29525 -3.062954,6.51203 -3.146219,6.73437 -2.522926,6.73437 0.288035,0 1.640102,-1.39998 3.004847,-3.11112 1.364796,-1.71109 2.6875605,-3.11292 2.9395035,-3.11522 0.940781,-0.005 0.397858,1.2719 -1.5733595,3.71196 -1.583992,1.96038 -1.88201,2.51438 -1.352815,2.51438 0.373397,0 0.998887,0.24211 1.390155,0.53809 0.391368,0.29602 0.900895,0.54332 1.1323715,0.54971 0.231626,0.005 1.657224,-1.14281 3.168084,-2.55378 1.51091,-1.41102 2.847002,-2.56545 2.969105,-2.56545 0.122302,0 0.222141,0.28454 0.222141,0.63272 0,0.34794 -1.142655,1.79111 -2.539249,3.20687 l -2.539249,2.57405 0.816082,1.57765 0.816082,1.57765 2.547735,-2.03356 c 1.401287,-1.1185 2.702386,-1.98305 2.891381,-1.92125 0.94028098,0.3075 0.338453,1.11355 -2.525621,3.38333 -1.722668,1.3652 -3.132142,2.69116 -3.132142,2.9466 0,0.28254 2.171493,-0.53769 5.546592,-2.09522 5.074909,-2.34192 6.547779,-2.75665 6.547779,-1.84362 0,0.1827 -2.9769,1.70115 -6.61527,3.37465 -3.638374,1.67344 -6.695337,3.17237 -6.793329,3.33092 -0.09784,0.15874 0.264573,0.9895 0.805649,1.84667 1.506617,2.38659 3.049775,7.00019 3.387829,10.12839 0.876085,8.10765 -1.790608,15.56242 -7.6452535,21.37268 -4.852863,4.81607 -11.026543,7.28539 -18.139905,7.25563 -2.027126,-0.005 -4.357862,-0.28703 -6.047134,-0.72308 z m 12.468215,-2.57234 c 3.934046,-1.0857 7.084009,-2.9754 10.294175,-6.17578 4.5175045,-4.50358 6.6942395,-9.83566 6.6706275,-16.34011 -0.01498,-3.94987 -0.793069,-7.14291 -2.567554,-10.52785 -1.1858845,-2.26204 -1.3553115,-2.43122 -2.0582755,-2.05498 -1.123236,0.60113 -4.310389,0.49969 -5.62272,-0.17871 -2.439011,-1.26126 -4.038877,-4.25623 -3.684599,-6.89756 0.180209,-1.34104 0.115813,-1.46419 -0.999586,-1.93033 -3.39362,-1.41791 -10.014327,-1.78407 -13.95052,-0.77146 -8.070068,2.0761 -14.825508,8.82889 -16.855579,16.84909 -0.709854,2.80427 -0.709854,8.58629 0,11.39056 2.076147,8.20215 9.52946,15.42319 17.565482,17.01806 3.000754,0.59554 8.326453,0.41483 11.208549,-0.38088 z m 13.174972,-37.57547 c 2.3756145,-2.14618 2.3873455,-5.38685 0.02995,-7.6475 -1.474868,-1.41302 -4.39016,-1.69965 -6.135142,-0.60327 -2.462174,1.54705 -3.237571,4.14615 -1.99967,6.70282 0.994294,2.05358 2.299985,2.84191 4.727365,2.85419 1.698906,0.005 2.09282,-0.14377 3.379742,-1.30624 z m 21.781226,37.45237 c -1.7336495,-1.73365 -1.7336495,-3.47055 0,-5.2042 1.41377,-1.41377 3.13134,-1.65967 4.56722,-0.65394 1.14445,0.8016 0.48622,1.4236 -1.50706,1.4236 -1.26052,0 -1.61445,0.16523 -2.06717,0.96559 -0.4932,0.87229 -0.48272,1.06228 0.10883,1.96528 0.57881,0.88337 0.81648,0.97382 2.04275,0.77774 1.83344,-0.29303 2.65496,0.51676 1.40932,1.38926 -1.42315,0.99679 -3.14447,0.74609 -4.55379,-0.66333 z m 10.48177,-2.6021 v -3.84819 h 0.91617 c 0.82472,0 0.91627,0.14677 0.91627,1.46599 v 1.46598 h 1.46593 1.46609 v -1.49144 c 0,-1.33709 0.0859,-1.47936 0.82456,-1.37438 0.79233,0.11281 0.82462,0.26058 0.82462,3.78204 0,3.52166 -0.0349,3.66952 -0.82462,3.78204 -0.73925,0.10483 -0.82456,-0.0349 -0.82456,-1.37433 v -1.49149 H 24.98413 23.5182 v 1.46598 c 0,1.31942 -0.0914,1.46598 -0.91627,1.46598 h -0.91617 z m 11.36135,3.50753 c 0,-0.53378 3.22904,-7.35572 3.48163,-7.35572 0.25259,0 3.48183,6.82194 3.48183,7.35572 0,0.56404 -1.47287,0.38289 -1.70006,-0.20916 -0.14227,-0.3704 -0.72363,-0.54971 -1.78177,-0.54971 -1.05809,0 -1.6396,0.17921 -1.78172,0.54971 -0.22714,0.59195 -1.69991,0.77315 -1.69991,0.20916 z m 4.03144,-2.93615 c 0,-0.61441 -0.65005,-0.76657 -0.8663,-0.20268 -0.12729,0.33297 0.001,0.54762 0.32797,0.54762 0.29602,0 0.53828,-0.15525 0.53828,-0.34494 z m 7.85297,2.78969 c -0.10234,-0.26807 -0.13878,-1.95834 -0.0804,-3.75658 0.0998,-3.07389 0.15575,-3.27646 0.9314,-3.38653 0.79631,-0.11282 0.82471,-0.015 0.82471,2.8182 v 2.93536 l 1.37423,0.11381 c 1.10402,0.0913 1.3975,0.27606 1.49155,0.93834 0.11082,0.77784 -0.015,0.82461 -2.11888,0.82461 -1.52165,0 -2.2957,-0.15574 -2.42284,-0.48721 z m 9.45094,-3.2516 c 0.0998,-3.59854 0.14277,-3.77984 0.92915,-3.89151 0.79636,-0.11282 0.82461,-0.015 0.82461,2.8182 v 2.93536 l 1.37438,0.11381 c 1.09204,0.0904 1.37434,0.26407 1.37434,0.84673 0,0.64361 -0.28055,0.7463 -2.30353,0.84244 l -2.30368,0.10933 z m 9.45018,-0.10932 v -3.88163 l 2.47386,0.10832 c 2.19341,0.0964 2.47375,0.19119 2.47375,0.84134 0,0.60033 -0.28154,0.75344 -1.55748,0.84569 -1.99158,0.14427 -2.23264,1.17006 -0.27456,1.17006 1.12394,0 1.28278,0.11332 1.28278,0.91622 0,0.8028 -0.15874,0.91627 -1.28278,0.91627 -1.95769,0 -1.71662,1.02594 0.27456,1.17001 1.27559,0.0924 1.55748,0.2451 1.55748,0.84568 0,0.6499 -0.28054,0.7453 -2.47375,0.84135 l -2.47386,0.10832 z m 10.26188,0 c 0,-2.11648 0.13029,-3.84814 0.28854,-3.84814 0.15874,0 1.10082,0.82457 2.09362,1.83249 0.99274,1.00783 1.93477,1.83244 2.09351,1.83244 0.15875,0 0.28854,-0.82461 0.28854,-1.83244 0,-1.71033 0.0609,-1.83249 0.91612,-1.83249 h 0.91632 v 3.84814 c 0,2.11653 -0.11931,3.84823 -0.26407,3.84823 -0.14527,0 -1.21729,-0.94312 -2.38226,-2.09586 l -2.11793,-2.09587 v 2.09587 c 0,1.99128 -0.0449,2.09586 -0.91612,2.09586 h -0.91627 z m 12.92698,2.55527 c -1.16882,-1.16886 -1.2735,-1.43803 -1.09014,-2.80462 0.37589,-2.80312 3.44174,-4.47832 5.60375,-3.06175 1.27034,0.8324 0.65574,1.47866 -1.40663,1.47866 -1.26042,0 -1.61444,0.16573 -2.06711,0.96564 -0.49121,0.8687 -0.48322,1.06188 0.0819,1.92409 0.61766,0.94273 2.44361,1.38506 2.44361,0.59195 0,-0.20168 -0.16524,-0.36641 -0.36641,-0.36641 -0.20167,0 -0.36641,-0.32997 -0.36641,-0.73302 0,-0.59339 0.24411,-0.73297 1.28268,-0.73297 1.27449,0 1.28283,0.01 1.28283,1.63631 0,1.88381 -0.5896,2.39513 -2.76139,2.39513 -1.04871,0 -1.62702,-0.28354 -2.63639,-1.29296 z m 10.8951,-2.55527 v -3.84814 h 2.38225 c 2.29674,0 2.38221,0.035 2.38221,0.91622 0,0.82462 -0.14677,0.91627 -1.46594,0.91627 -1.05884,0 -1.46608,0.15276 -1.46608,0.54972 0,0.38587 0.38987,0.54976 1.30834,0.54976 1.14705,0 1.29371,0.10183 1.19107,0.82462 -0.0898,0.63198 -0.39536,0.85137 -1.30828,0.93943 -1.81028,0.17472 -1.57661,1.16786 0.27505,1.16786 1.31937,0 1.46594,0.0919 1.46594,0.91627 0,0.88333 -0.0859,0.91622 -2.38226,0.91622 h -2.38225 z m -87.48012,-8.39679 c -1.0034295,-0.86236 -1.0282895,-0.97533 -1.0282895,-4.6728 v -3.78913 l 1.0078195,-0.11582 1.00787,-0.11581 0.005,2.68147 c 0.005,2.876 0.53608,4.43169 1.579,4.63252 1.33229,0.25658 1.71408,-0.59919 1.71408,-3.84295 v -3.08486 l -2.38825,-2.5428 c -1.31347,-1.39854 -2.5504295,-2.9695 -2.7487095,-3.49101 -0.19818,-0.52156 -0.36041,-2.34756 -0.36041,-4.05785 0,-4.69437 0.9183095,-6.00505 4.2072995,-6.00505 1.30564,0 1.89449,0.20467 2.58957,0.8996 0.83026,0.83026 0.8995,1.17076 0.8995,4.42226 v 3.52266 l -1.00783,-0.11582 c -0.99194,-0.11431 -1.00952,-0.16074 -1.1148,-2.95163 -0.0898,-2.37556 -0.22364,-2.89797 -0.82461,-3.2197 -0.50254,-0.26906 -0.93734,-0.26657 -1.45066,0.005 -0.64396,0.34495 -0.73297,0.76736 -0.73297,3.48118 v 3.08886 l 2.14444,2.30403 c 2.69305,2.89343 2.96441,3.42143 3.23233,6.29064 0.30301,3.24217 -0.11631,5.62961 -1.1748,6.6877 -1.23915,1.23915 -4.10642,1.23221 -5.55593,-0.015 z m 9.41684,-11.76036 v -12.64408 h 2.21073 c 1.21594,0 2.76104,0.23013 3.4337,0.51103 2.10091,0.87778 2.4184,1.70874 2.4184,6.33022 0,3.80311 -0.0654,4.18904 -0.87209,5.12667 -0.68939,0.80141 -1.28493,1.0554 -2.84047,1.21155 l -1.96807,0.19768 -0.10083,5.95548 -0.10084,5.95558 h -1.09039 -1.09044 z m 5.3231,-2.26025 c 0.4967,-0.4967 0.58716,-1.18823 0.48422,-3.69448 -0.13977,-3.40425 -0.58995,-4.12389 -2.57893,-4.12389 h -1.02944 v 4.21469 4.2147 h 1.25652 c 0.69103,0 1.53158,-0.27456 1.86763,-0.61102 z m 3.38149,14.65044 c -0.0884,-0.16273 0.60423,-5.8208 1.53882,-12.57344 l 1.69905,-12.27757 1.34638,-0.11282 c 1.15164,-0.0964 1.37383,0.01 1.53672,0.73301 0.21515,0.95591 3.13269,23.38079 3.13269,24.07952 0,0.28903 -0.42931,0.41033 -1.19113,0.33695 -0.96269,-0.0928 -1.21009,-0.29053 -1.28997,-1.03108 -0.35991,-3.33307 -0.33595,-3.29848 -2.24068,-3.29848 h -1.75656 l -0.33446,2.1074 c -0.30251,1.90767 -0.42631,2.11798 -1.30729,2.21992 -0.53538,0.0619 -1.04551,-0.02 -1.13377,-0.18321 z m 5.93522,-7.16767 c -0.03,-1.26161 -1.34892,-11.16512 -1.40069,-10.52151 -0.10234,1.27254 -1.17615,9.40326 -1.36555,10.3383 -0.19618,0.96809 -0.14526,1.00783 1.29102,1.00783 1.31218,0 1.49269,-0.10084 1.47522,-0.82462 z m 6.20627,6.33432 -1.08724,-1.0872 0.10783,-10.67286 0.10782,-10.67276 1.02819,-0.88408 c 1.42245,-1.22292 3.85093,-1.22287 5.27339,5e-5 0.97252,0.83615 1.03517,1.07462 1.15528,4.39795 l 0.12729,3.51383 H 46.2771 45.14223 v -2.72251 c 0,-1.98639 -0.15575,-2.87825 -0.57597,-3.29847 -0.69548,-0.69558 -0.9311,-0.7115 -1.74254,-0.11781 -0.56768,0.41533 -0.61695,1.36235 -0.52819,10.13049 0.0888,8.74962 0.15924,9.71097 0.7394,10.07673 0.46675,0.29402 0.81574,0.29452 1.28268,7.5e-4 0.52041,-0.32748 0.66128,-1.03583 0.74674,-3.75469 l 0.10533,-3.35109 h 1.08575 1.0857 v 3.50574 c 0,4.88885 -0.69398,5.99107 -3.78474,6.01144 -1.48091,0.01 -1.94616,-0.16523 -2.85624,-1.07556 z m 9.2933,-11.45141 0.0968,-12.56625 3.20682,-0.10583 3.20682,-0.10583 v 1.297 1.29701 H 54.48745 52.4717 v 4.39795 4.39794 h 1.46593 c 1.38462,0 1.46609,0.0614 1.46609,1.09948 0,1.03837 -0.0819,1.09947 -1.46609,1.09947 H 52.4717 v 4.58115 4.58121 h 2.22226 2.22211 l -0.11481,1.19112 -0.11481,1.19108 -3.39497,0.10533 -3.39492,0.10533 z m 13.46959,11.71398 c -0.015,-1.5756 2.97784,-22.81934 3.32498,-23.66193 0.28055,-0.6812 0.58246,-0.82512 1.53752,-0.73297 l 1.18848,0.11482 1.53327,11.54455 c 1.90243,14.32507 1.87428,13.5603 0.4992,13.5603 -0.96774,0 -1.10636,-0.14626 -1.3039,-1.37433 -0.50518,-3.14182 -0.41882,-3.02362 -2.21292,-3.02362 -1.80658,0 -1.82236,0.02 -2.17559,2.65711 -0.21815,1.62902 -0.30201,1.74084 -1.31008,1.74084 -0.87145,0 -1.07766,-0.15724 -1.08086,-0.82462 z m 5.86443,-6.59689 c 0,-1.35831 -1.10721,-10.30346 -1.29171,-10.48801 -0.0939,-0.0939 -0.17622,0.22763 -0.18221,0.71484 0,0.48721 -0.3085,3.07089 -0.67141,5.74173 l -0.66014,4.85606 h 1.40438 c 1.21305,0 1.40394,-0.11232 1.40099,-0.82462 z m 5.66745,6.96066 c -0.0968,-0.25309 -0.13279,-5.90212 -0.0804,-12.55248 l 0.0968,-12.09152 1.90752,-0.11033 c 2.84376,-0.16423 4.76625,0.47324 5.6378,1.86963 0.63966,1.0248 0.71834,1.69587 0.62469,5.3281 -0.10383,4.04037 -0.13578,4.1801 -1.13557,5.03931 -0.78663,0.67611 -1.45385,0.88372 -2.84026,0.88372 h -1.81197 v 6.04714 6.04713 h -1.11106 c -0.61101,0 -1.19053,-0.20716 -1.28777,-0.46075 z m 5.55313,-14.75707 c 0.47473,-0.72438 0.56798,-1.51515 0.43081,-3.65165 -0.20218,-3.14892 -0.63109,-3.85308 -2.34746,-3.85308 h -1.2378 v 4.21469 4.2147 h 1.27424 c 0.95785,0 1.42465,-0.22963 1.88006,-0.92466 z m 4.99523,2.68906 0.0968,-12.57599 2.74871,0.02 c 4.53687,0.03 5.49737,1.1791 5.49737,6.57893 0,4.93173 -0.96879,6.41364 -4.19268,6.41364 H 88.0397 l -0.10084,5.95553 -0.10083,5.95553 -1.19602,0.11532 -1.19597,0.11531 0.0968,-12.57604 z m 5.33738,-2.20419 c 0.27506,-0.27456 0.43979,-1.63936 0.43979,-3.63878 0,-3.58571 -0.39136,-4.35082 -2.22515,-4.35082 h -1.07322 v 4.21469 4.2147 h 1.2094 c 0.66517,0 1.40732,-0.19769 1.64918,-0.43979 z m 5.90906,13.66178 c -1.04237,-1.04231 -1.07132,-1.17121 -1.07132,-4.76445 v -3.69309 h 1.09953 1.09942 v 2.65706 c 0,3.47688 0.2451,4.26307 1.37852,4.54761 1.43853,0.36141 1.91501,-0.63308 1.91501,-3.99545 v -2.881 l -2.54938,-2.69355 c -1.40224,-1.48141 -2.65541,-3.11517 -2.7846,-3.63054 -0.1288,-0.51536 -0.17772,-2.52512 -0.10783,-4.46613 0.1208,-3.33986 0.1827,-3.57658 1.15593,-4.41323 1.02754,-0.88352 3.38913,-1.20515 4.81922,-0.65644 1.13232,0.4343 1.66566,2.17469 1.66566,5.43483 v 3.13339 h -1.09952 -1.09948 v -2.72251 c 0,-1.98639 -0.15575,-2.87825 -0.57592,-3.29847 -0.68135,-0.68135 -0.73027,-0.68719 -1.64714,-0.19668 -0.61595,0.32947 -0.7089,0.78992 -0.7089,3.50893 v 3.1295 l 1.95419,2.08009 c 3.16748,3.37175 3.17677,3.39452 3.17677,7.81243 0,4.54361 -0.0998,4.9229 -1.49224,5.64264 -1.77593,0.91837 -3.90095,0.69682 -5.13296,-0.53514 z M 9.9579505,134.81226 c 0,-2.55108 0.060399,-2.77556 0.7489895,-2.77556 0.69533,0 0.74135,0.19019 0.64142,2.65321 -0.0884,2.18437 -0.22115,2.67483 -0.74909,2.77562 -0.56514,0.10783 -0.6413195,-0.20767 -0.6413195,-2.65327 z m 5.4974195,0.004 c 0,-1.52863 0.11631,-2.77926 0.25958,-2.77926 0.14277,0 0.88477,0.61066 1.64924,1.35711 l 1.38976,1.3571 v -1.38401 c 0,-1.12024 0.1218,-1.3607 0.64136,-1.26186 0.50818,0.0968 0.66458,0.56933 0.75278,2.27637 0.17273,3.33951 -0.0554,3.54013 -1.93158,1.69881 l -1.61114,-1.5812 -0.11632,1.39759 c -0.0639,0.76866 -0.32298,1.46529 -0.57497,1.5481 -0.33945,0.11132 -0.45826,-0.56948 -0.45826,-2.62875 z m 9.41435,2.48144 c -0.13828,-0.13828 -0.25159,-1.13157 -0.25159,-2.20659 0,-1.49313 -0.13029,-1.95464 -0.54977,-1.95464 -0.30251,0 -0.54981,-0.2476 -0.54981,-0.54976 0,-0.41533 0.44778,-0.54971 1.83249,-0.54971 1.38462,0 1.83244,0.13428 1.83244,0.54971 0,0.30251 -0.23911,0.54976 -0.53134,0.54976 -0.38887,0 -0.56104,0.5576 -0.64151,2.07834 -0.10084,1.92225 -0.5261,2.6974 -1.14056,2.08289 z m 6.23997,0.01 c -0.14377,-0.14376 -0.26108,-1.3885 -0.26108,-2.76593 v -2.50435 H 32.681 c 1.38452,0 1.83249,0.13428 1.83249,0.54976 0,0.36641 -0.3664,0.54971 -1.09942,0.54971 -1.27714,0 -1.49254,0.62619 -0.27506,0.79911 0.45377,0.0644 0.82457,0.36441 0.82457,0.66682 0,0.30251 -0.3709,0.60248 -0.82457,0.66688 -1.15039,0.16323 -1.03128,0.72667 0.18321,0.8664 1.63521,0.18819 1.27659,1.19572 -0.47124,1.32431 -0.81369,0.0599 -1.59697,-0.005 -1.74089,-0.15276 z m 7.32023,-0.01 c -0.13828,-0.13828 -0.25159,-1.37892 -0.25159,-2.75635 V 132.037 h 1.5759 c 0.86685,0 1.77389,0.19768 2.01585,0.43979 0.56224,0.56229 0.56628,1.85255 0.015,2.41145 -0.33196,0.33197 -0.31799,0.64631 0.0609,1.35546 0.27206,0.50773 0.39087,1.0262 0.26507,1.15219 -0.4328,0.4328 -1.37163,-0.21016 -1.79075,-1.22647 l -0.41983,-1.01725 -0.21615,1.06927 c -0.21665,1.06977 -0.7732,1.5502 -1.24718,1.07626 z m 2.49677,-3.61147 c 0,-0.20167 -0.3709,-0.41932 -0.82457,-0.48372 -0.56738,-0.0804 -0.82462,0.0704 -0.82462,0.48372 0,0.41334 0.25758,0.56419 0.82462,0.48372 0.45327,-0.0644 0.82457,-0.28204 0.82457,-0.48372 z m 5.31426,1.09948 c 0,-1.51181 0.11632,-2.74871 0.25959,-2.74871 0.14227,0 0.88472,0.61066 1.64923,1.35711 l 1.38971,1.3571 v -1.3571 c 0,-0.962 0.16024,-1.35711 0.54981,-1.35711 0.44079,0 0.54971,0.55825 0.54971,2.82503 v 2.82499 l -1.64928,-1.61858 -1.64919,-1.61859 v 1.54226 c 0,1.12658 -0.14776,1.54231 -0.54976,1.54231 -0.43979,0 -0.54967,-0.54971 -0.54967,-2.74871 z m 8.06283,2.42333 c 0,-0.56139 2.25481,-5.17204 2.52947,-5.17204 0.14377,0 0.77375,1.15338 1.40009,2.56311 1.14155,2.5693 1.0483,3.57278 -0.22464,2.42049 -0.81558,-0.73816 -2.09427,-0.75748 -2.37112,-0.035 -0.22464,0.58541 -1.3335,0.77201 -1.3335,0.22464 z m 2.93197,-2.03521 c 0,-0.0889 -0.16523,-0.26357 -0.36641,-0.38837 -0.20167,-0.1248 -0.36641,-0.0519 -0.36641,0.16174 0,0.21365 0.16524,0.38787 0.36641,0.38787 0.20167,0 0.36641,-0.0729 0.36641,-0.16124 z m 6.11587,2.12387 c -0.13828,-0.13828 -0.25209,-1.13157 -0.25209,-2.20659 0,-1.49313 -0.13029,-1.95464 -0.54976,-1.95464 -0.30251,0 -0.54962,-0.2476 -0.54962,-0.54976 0,-0.41533 0.44778,-0.54971 1.83244,-0.54971 1.38447,0 1.83245,0.13428 1.83245,0.54971 0,0.30251 -0.23912,0.54976 -0.5315,0.54976 -0.38887,0 -0.56084,0.5576 -0.64131,2.07834 -0.10084,1.92225 -0.52625,2.6974 -1.14071,2.08289 z m 5.9784,-2.51199 c 0,-2.199 0.10932,-2.74871 0.54981,-2.74871 0.43979,0 0.54976,0.54971 0.54976,2.74871 0,2.199 -0.10932,2.74871 -0.54976,2.74871 -0.43979,0 -0.54981,-0.54971 -0.54981,-2.74871 z m 6.01014,1.89354 c -2.00876,-1.72791 -0.82641,-4.64225 1.88356,-4.64225 1.23281,0 2.73463,1.32586 2.73463,2.4144 0,0.96908 -0.8355,2.27907 -1.70684,2.67608 -1.29167,0.58855 -1.7964,0.51082 -2.91135,-0.44828 z m 2.71247,-1.0506 c 0.65958,-0.65964 0.53009,-1.68503 -0.26657,-2.11149 -0.89505,-0.47923 -1.7654,-0.15326 -2.05862,0.77025 -0.4343,1.36914 1.29805,2.36853 2.32529,1.34124 z m 5.57075,-0.81239 c 0,-1.52863 0.11632,-2.77926 0.25958,-2.77926 0.14227,0 0.88473,0.61066 1.64919,1.35711 l 1.38976,1.3571 v -1.3571 c 0,-0.962 0.16024,-1.35711 0.54976,-1.35711 0.44129,0 0.54976,0.55825 0.54976,2.82503 v 2.82499 l -1.62408,-1.59387 -1.62397,-1.59383 -0.11632,1.39759 c -0.0639,0.76866 -0.32297,1.46529 -0.57502,1.5481 -0.33945,0.11132 -0.45826,-0.56948 -0.45826,-2.62875 z m 8.06283,2.40237 c 0,-0.60283 2.20789,-5.18163 2.49847,-5.18163 0.16074,0 0.8048,1.15338 1.43119,2.56311 1.14145,2.5693 1.04825,3.57278 -0.22514,2.42049 -0.81553,-0.73816 -2.09422,-0.75748 -2.37112,-0.035 -0.22214,0.57957 -1.3335,0.7745 -1.3335,0.23413 z m 2.93202,-2.0448 c 0,-0.0889 -0.16524,-0.26357 -0.36641,-0.38837 -0.20168,-0.1248 -0.36641,-0.0519 -0.36641,0.16174 0,0.21365 0.16523,0.38787 0.36641,0.38787 0.20167,0 0.36641,-0.0729 0.36641,-0.16124 z m 5.75915,2.13371 c -0.14377,-0.14377 -0.26158,-1.38876 -0.26158,-2.76619 0,-2.26 0.0724,-2.50435 0.73301,-2.50435 0.64416,0 0.73307,0.2441 0.73307,2.01569 0,1.9211 0.0449,2.01575 0.94303,2.01575 0.70022,0 0.91188,0.16523 0.82152,0.64136 -0.0829,0.43929 -0.52855,0.67571 -1.41426,0.75044 -0.71101,0.0599 -1.41063,-0.005 -1.55459,-0.15275 z M 58.76987,126.86151 c -1.09957,-0.40934 -0.66547,-1.12684 0.50409,-0.83331 1.12238,0.28155 1.27264,-0.78493 0.16024,-1.13801 -0.40335,-0.12779 -0.90394,-0.55141 -1.11241,-0.94093 -0.79746,-1.49015 1.01272,-2.80667 2.53416,-1.84298 0.76422,0.48422 0.1857,1.06024 -0.8628,0.85972 -1.28887,-0.24661 -1.16717,0.49769 0.19668,1.2029 2.07929,1.07532 0.79187,3.51608 -1.42021,2.69261 z M 46.60746,124.2643 v -2.64178 l 1.64919,1.61858 1.64919,1.61859 v -1.54226 c 0,-1.12658 0.14826,-1.54231 0.54976,-1.54231 0.43629,0 0.54976,0.52939 0.54976,2.56546 0,1.41102 -0.11631,2.5655 -0.25958,2.5655 -0.14227,0 -0.88487,-0.61076 -1.64934,-1.35716 l -1.38975,-1.35705 v 1.35705 c 0,0.962 -0.16024,1.35716 -0.54976,1.35716 -0.4378,0 -0.54962,-0.53788 -0.54962,-2.64178 z m 6.67887,0.25958 c 0.6462,-1.31023 1.28173,-2.38225 1.41247,-2.38225 0.13029,0 0.68764,1.00213 1.23725,2.22695 0.96524,2.15088 1.0184,3.13584 0.1208,2.23819 -0.5279,-0.5279 -2.35619,-0.57393 -2.66934,-0.0669 -0.1248,0.20168 -0.46275,0.36641 -0.75118,0.36641 -0.38838,0 -0.21965,-0.61795 0.65005,-2.3822 z m 1.75047,0.36641 c 0,-0.30251 -0.16523,-0.54971 -0.36641,-0.54971 -0.20167,0 -0.36641,0.2476 -0.36641,0.54971 0,0.30251 0.16524,0.54976 0.36641,0.54976 0.20168,0 0.36641,-0.2476 0.36641,-0.54976 z m 7.34768,1.74084 c 0.015,-0.15126 0.55491,-1.31907 1.2115,-2.59536 l 1.19372,-2.3205 1.16412,2.50375 c 0.69852,1.50263 1.00727,2.55692 0.77205,2.63659 -0.21565,0.0734 -0.57537,-0.0509 -0.79961,-0.27455 -0.50713,-0.50713 -2.46007,-0.53988 -2.46007,-0.0399 0,0.20168 -0.2476,0.36641 -0.54982,0.36641 -0.30251,0 -0.54172,-0.1233 -0.53189,-0.27456 z m 2.90856,-1.46594 c -0.015,-0.35093 -0.7143,-1.45739 -0.72179,-1.12947 0,0.13428 -0.10533,0.50578 -0.22813,0.82462 -0.14576,0.38038 -0.02,0.57971 0.36641,0.57971 0.32398,0 0.5865,-0.1238 0.58346,-0.27506 z"
       id="path4845"
       inkscape:connector-curvature="0" />
  </g>
</svg>
